# xmcd CD database file
#
# Track frame offsets:
#	150
#	20173
#	44640
#	63864
#	89188
#
# Disc length: 1629 seconds
#
# Revision: 7
# Processed by: cddbd v1.5.2PL0 Copyright (c) Steve Scherf et al.
# Submitted via: CDex 1.83
#
DISCID=46065b05
DTITLE=Depeche Mode - Spirit [CD 2) [Jungle Spirit Mixes]
DYEAR=2017
DGENRE=Synthpop
TTITLE0=Cover Me [alt out]
TTITLE1=Scum [frenetic mix]
TTITLE2=Poison Heart [tripped mix]
TTITLE3=Fail [cinematic cut]
TTITLE4=So Much Love [machine mix]
EXTD=YEAR: 2017
EXTT0=
EXTT1=
EXTT2=
EXTT3=
EXTT4=
PLAYORDER=
